<?xml version="1.0" standalone="no"?>
<!DOCTYPE svg PUBLIC "-//W3C//DTD SVG 20010904//EN"
 "http://www.w3.org/TR/2001/REC-SVG-20010904/DTD/svg10.dtd">
<svg version="1.0" xmlns="http://www.w3.org/2000/svg"
 width="337.000000pt" height="337.000000pt" viewBox="0 0 337.000000 337.000000"
 preserveAspectRatio="xMidYMid meet">
<metadata>
Created by potrace 1.14, written by Peter Selinger 2001-2017
</metadata>
<g transform="translate(0.000000,337.000000) scale(0.100000,-0.100000)"
fill="#000000" stroke="none">
<path d="M2380 1604 c-11 -26 -20 -48 -20 -50 0 -5 -171 -459 -367 -974 -75
-195 -144 -379 -154 -407 l-18 -53 139 0 138 0 12 38 c30 94 104 298 113 310
12 16 582 18 592 2 4 -6 33 -85 65 -176 32 -92 61 -168 63 -170 2 -3 65 -3
140 -2 l135 3 -144 380 c-79 209 -188 495 -241 635 -53 140 -118 312 -145 383
l-50 127 -118 0 -119 0 -21 -46z m251 -597 c59 -166 105 -305 102 -309 -6 -11
-421 -10 -427 1 -3 5 41 143 99 306 58 164 105 300 105 302 0 1 3 3 8 3 4 0
55 -136 113 -303z"/>
</g>
</svg>
